<svg width="944" height="582" viewBox="0 0 944 582" fill="none" xmlns="http://www.w3.org/2000/svg">
<path d="M76.6577 252.088H69.2095L67.7935 256.336H63.2764L70.9512 235.719H74.8877L82.605 256.336H78.0879L76.6577 252.088ZM70.3564 248.647H75.5107L72.9194 240.93L70.3564 248.647ZM87.4194 241.015L87.5469 242.728C88.6325 241.397 90.1004 240.731 91.9507 240.731C93.9237 240.731 95.2783 241.51 96.0146 243.068C97.0908 241.51 98.6248 240.731 100.617 240.731C102.278 240.731 103.515 241.217 104.327 242.19C105.139 243.153 105.544 244.606 105.544 246.551V256.336H101.438V246.565C101.438 245.697 101.268 245.064 100.928 244.668C100.588 244.262 99.9889 244.059 99.1299 244.059C97.9027 244.059 97.0531 244.644 96.5811 245.815L96.5952 256.336H92.5029V246.579C92.5029 245.692 92.3283 245.05 91.979 244.654C91.6297 244.257 91.035 244.059 90.1948 244.059C89.0337 244.059 88.1935 244.54 87.6743 245.503V256.336H83.582V241.015H87.4194ZM108.065 248.534C108.065 247.014 108.358 245.659 108.943 244.47C109.528 243.28 110.368 242.36 111.463 241.708C112.568 241.057 113.847 240.731 115.301 240.731C117.368 240.731 119.053 241.364 120.356 242.629C121.668 243.894 122.4 245.612 122.551 247.783L122.579 248.831C122.579 251.182 121.923 253.07 120.611 254.495C119.299 255.911 117.538 256.619 115.329 256.619C113.12 256.619 111.355 255.911 110.033 254.495C108.721 253.079 108.065 251.153 108.065 248.718V248.534ZM112.157 248.831C112.157 250.285 112.431 251.399 112.979 252.173C113.526 252.937 114.31 253.32 115.329 253.32C116.32 253.32 117.094 252.942 117.651 252.187C118.208 251.422 118.487 250.204 118.487 248.534C118.487 247.108 118.208 246.004 117.651 245.22C117.094 244.437 116.311 244.045 115.301 244.045C114.3 244.045 113.526 244.437 112.979 245.22C112.431 245.994 112.157 247.198 112.157 248.831ZM134.275 254.778C133.265 256.005 131.868 256.619 130.084 256.619C128.441 256.619 127.186 256.147 126.317 255.203C125.458 254.259 125.019 252.876 125 251.054V241.015H129.093V250.912C129.093 252.508 129.82 253.306 131.273 253.306C132.661 253.306 133.615 252.824 134.134 251.861V241.015H138.24V256.336H134.389L134.275 254.778ZM145.094 241.015L145.221 242.785C146.316 241.416 147.784 240.731 149.625 240.731C151.249 240.731 152.457 241.208 153.25 242.161C154.043 243.115 154.449 244.54 154.468 246.438V256.336H150.375V246.537C150.375 245.668 150.187 245.041 149.809 244.654C149.431 244.257 148.804 244.059 147.926 244.059C146.774 244.059 145.91 244.55 145.334 245.532V256.336H141.242V241.015H145.094ZM162.482 237.248V241.015H165.102V244.016H162.482V251.663C162.482 252.229 162.591 252.635 162.808 252.881C163.025 253.126 163.441 253.249 164.054 253.249C164.507 253.249 164.909 253.216 165.258 253.15V256.251C164.455 256.496 163.629 256.619 162.78 256.619C159.91 256.619 158.447 255.17 158.39 252.272V244.016H156.153V241.015H158.39V237.248H162.482ZM173.966 248.534C173.966 247.014 174.259 245.659 174.844 244.47C175.43 243.28 176.27 242.36 177.365 241.708C178.469 241.057 179.748 240.731 181.202 240.731C183.27 240.731 184.955 241.364 186.257 242.629C187.569 243.894 188.301 245.612 188.452 247.783L188.48 248.831C188.48 251.182 187.824 253.07 186.512 254.495C185.2 255.911 183.439 256.619 181.23 256.619C179.021 256.619 177.256 255.911 175.935 254.495C174.622 253.079 173.966 251.153 173.966 248.718V248.534ZM178.059 248.831C178.059 250.285 178.332 251.399 178.88 252.173C179.427 252.937 180.211 253.32 181.23 253.32C182.222 253.32 182.996 252.942 183.553 252.187C184.11 251.422 184.388 250.204 184.388 248.534C184.388 247.108 184.11 246.004 183.553 245.22C182.996 244.437 182.212 244.045 181.202 244.045C180.201 244.045 179.427 244.437 178.88 245.22C178.332 245.994 178.059 247.198 178.059 248.831ZM192.12 256.336V244.016H189.84V241.015H192.12V239.712C192.12 237.994 192.611 236.663 193.592 235.719C194.583 234.765 195.966 234.288 197.741 234.288C198.308 234.288 199.001 234.383 199.823 234.572L199.78 237.744C199.44 237.659 199.025 237.616 198.534 237.616C196.995 237.616 196.226 238.338 196.226 239.783V241.015H199.271V244.016H196.226V256.336H192.12ZM15.4009 282.817C15.4009 285.177 14.8628 287.07 13.7866 288.495C12.7199 289.911 11.2756 290.619 9.45361 290.619C7.90544 290.619 6.65462 290.081 5.70117 289.005V296.226H1.60889V275.015H5.40381L5.54541 276.516C6.53662 275.326 7.82992 274.731 9.42529 274.731C11.3133 274.731 12.7812 275.43 13.8291 276.827C14.877 278.224 15.4009 280.15 15.4009 282.604V282.817ZM11.3086 282.519C11.3086 281.094 11.0537 279.994 10.5439 279.22C10.0436 278.446 9.31201 278.059 8.34912 278.059C7.06527 278.059 6.18262 278.55 5.70117 279.532V285.805C6.2015 286.815 7.09359 287.32 8.37744 287.32C10.3315 287.32 11.3086 285.72 11.3086 282.519ZM25.0015 290.619C22.7547 290.619 20.9233 289.93 19.5073 288.552C18.1007 287.173 17.3975 285.337 17.3975 283.043V282.647C17.3975 281.108 17.6948 279.735 18.2896 278.526C18.8843 277.308 19.7244 276.374 20.8101 275.723C21.9051 275.062 23.1512 274.731 24.5483 274.731C26.644 274.731 28.2913 275.392 29.4902 276.714C30.6986 278.035 31.3027 279.909 31.3027 282.335V284.006H21.5464C21.6785 285.007 22.075 285.809 22.7358 286.413C23.4061 287.018 24.251 287.32 25.2705 287.32C26.847 287.32 28.0789 286.749 28.9663 285.606L30.9771 287.858C30.3634 288.726 29.5327 289.406 28.4849 289.897C27.437 290.378 26.2759 290.619 25.0015 290.619ZM24.5342 278.045C23.7223 278.045 23.0615 278.319 22.5518 278.866C22.0514 279.414 21.7305 280.197 21.5889 281.217H27.2812V280.891C27.2624 279.985 27.0169 279.286 26.5449 278.795C26.0729 278.295 25.4027 278.045 24.5342 278.045ZM33.002 282.534C33.002 281.014 33.2946 279.659 33.8799 278.47C34.4652 277.28 35.3053 276.36 36.4004 275.708C37.5049 275.057 38.784 274.731 40.2378 274.731C42.3052 274.731 43.9902 275.364 45.293 276.629C46.6051 277.894 47.3368 279.612 47.4878 281.783L47.5161 282.831C47.5161 285.182 46.86 287.07 45.5479 288.495C44.2357 289.911 42.4751 290.619 40.2661 290.619C38.0571 290.619 36.2918 289.911 34.9702 288.495C33.658 287.079 33.002 285.153 33.002 282.718V282.534ZM37.0942 282.831C37.0942 284.285 37.368 285.399 37.9155 286.173C38.4631 286.937 39.2466 287.32 40.2661 287.32C41.2573 287.32 42.0314 286.942 42.5884 286.187C43.1453 285.422 43.4238 284.204 43.4238 282.534C43.4238 281.108 43.1453 280.004 42.5884 279.22C42.0314 278.437 41.2479 278.045 40.2378 278.045C39.2371 278.045 38.4631 278.437 37.9155 279.22C37.368 279.994 37.0942 281.198 37.0942 282.831ZM63.8286 282.817C63.8286 285.177 63.2905 287.07 62.2144 288.495C61.1476 289.911 59.7033 290.619 57.8813 290.619C56.3332 290.619 55.0824 290.081 54.1289 289.005V296.226H50.0366V275.015H53.8315L53.9731 276.516C54.9644 275.326 56.2576 274.731 57.853 274.731C59.741 274.731 61.209 275.43 62.2568 276.827C63.3047 278.224 63.8286 280.15 63.8286 282.604V282.817ZM59.7363 282.519C59.7363 281.094 59.4814 279.994 58.9717 279.22C58.4714 278.446 57.7397 278.059 56.7769 278.059C55.493 278.059 54.6104 278.55 54.1289 279.532V285.805C54.6292 286.815 55.5213 287.32 56.8052 287.32C58.7593 287.32 59.7363 285.72 59.7363 282.519ZM70.6963 290.336H66.5898V268.586H70.6963V290.336ZM81.1323 290.619C78.8856 290.619 77.0542 289.93 75.6382 288.552C74.2316 287.173 73.5283 285.337 73.5283 283.043V282.647C73.5283 281.108 73.8257 279.735 74.4204 278.526C75.0151 277.308 75.8553 276.374 76.9409 275.723C78.036 275.062 79.2821 274.731 80.6792 274.731C82.7749 274.731 84.4222 275.392 85.6211 276.714C86.8294 278.035 87.4336 279.909 87.4336 282.335V284.006H77.6772C77.8094 285.007 78.2059 285.809 78.8667 286.413C79.5369 287.018 80.3818 287.32 81.4014 287.32C82.9779 287.32 84.2098 286.749 85.0972 285.606L87.1079 287.858C86.4943 288.726 85.6636 289.406 84.6157 289.897C83.5679 290.378 82.4067 290.619 81.1323 290.619ZM80.665 278.045C79.8532 278.045 79.1924 278.319 78.6826 278.866C78.1823 279.414 77.8613 280.197 77.7197 281.217H83.4121V280.891C83.3932 279.985 83.1478 279.286 82.6758 278.795C82.2038 278.295 81.5335 278.045 80.665 278.045ZM110.316 284.771L112.327 275.015H116.278L112.37 290.336H108.943L106.04 280.693L103.137 290.336H99.7246L95.8164 275.015H99.7671L101.764 284.757L104.567 275.015H107.527L110.316 284.771ZM122.31 276.685C123.396 275.383 124.76 274.731 126.402 274.731C129.725 274.731 131.41 276.662 131.458 280.523V290.336H127.365V280.636C127.365 279.758 127.176 279.112 126.799 278.696C126.421 278.271 125.793 278.059 124.916 278.059C123.717 278.059 122.848 278.522 122.31 279.447V290.336H118.218V268.586H122.31V276.685ZM133.907 282.534C133.907 281.014 134.2 279.659 134.785 278.47C135.37 277.28 136.211 276.36 137.306 275.708C138.41 275.057 139.689 274.731 141.143 274.731C143.21 274.731 144.896 275.364 146.198 276.629C147.51 277.894 148.242 279.612 148.393 281.783L148.421 282.831C148.421 285.182 147.765 287.07 146.453 288.495C145.141 289.911 143.38 290.619 141.171 290.619C138.962 290.619 137.197 289.911 135.875 288.495C134.563 287.079 133.907 285.153 133.907 282.718V282.534ZM138 282.831C138 284.285 138.273 285.399 138.821 286.173C139.368 286.937 140.152 287.32 141.171 287.32C142.163 287.32 142.937 286.942 143.494 286.187C144.051 285.422 144.329 284.204 144.329 282.534C144.329 281.108 144.051 280.004 143.494 279.22C142.937 278.437 142.153 278.045 141.143 278.045C140.142 278.045 139.368 278.437 138.821 279.22C138.273 279.994 138 281.198 138 282.831ZM157.526 282.562C157.526 280.174 158.06 278.271 159.126 276.855C160.203 275.439 161.671 274.731 163.53 274.731C165.022 274.731 166.254 275.288 167.226 276.402V268.586H171.333V290.336H167.637L167.438 288.707C166.419 289.982 165.107 290.619 163.502 290.619C161.699 290.619 160.25 289.911 159.155 288.495C158.069 287.07 157.526 285.092 157.526 282.562ZM161.619 282.859C161.619 284.294 161.869 285.394 162.369 286.159C162.869 286.923 163.596 287.306 164.55 287.306C165.815 287.306 166.707 286.772 167.226 285.705V279.659C166.716 278.592 165.834 278.059 164.578 278.059C162.605 278.059 161.619 279.659 161.619 282.859ZM173.867 282.534C173.867 281.014 174.16 279.659 174.745 278.47C175.33 277.28 176.171 276.36 177.266 275.708C178.37 275.057 179.649 274.731 181.103 274.731C183.17 274.731 184.855 275.364 186.158 276.629C187.47 277.894 188.202 279.612 188.353 281.783L188.381 282.831C188.381 285.182 187.725 287.07 186.413 288.495C185.101 289.911 183.34 290.619 181.131 290.619C178.922 290.619 177.157 289.911 175.835 288.495C174.523 287.079 173.867 285.153 173.867 282.718V282.534ZM177.959 282.831C177.959 284.285 178.233 285.399 178.781 286.173C179.328 286.937 180.112 287.32 181.131 287.32C182.123 287.32 182.897 286.942 183.454 286.187C184.011 285.422 184.289 284.204 184.289 282.534C184.289 281.108 184.011 280.004 183.454 279.22C182.897 278.437 182.113 278.045 181.103 278.045C180.102 278.045 179.328 278.437 178.781 279.22C178.233 279.994 177.959 281.198 177.959 282.831ZM194.668 275.015L194.796 276.785C195.891 275.416 197.359 274.731 199.2 274.731C200.823 274.731 202.032 275.208 202.825 276.161C203.618 277.115 204.024 278.54 204.042 280.438V290.336H199.95V280.537C199.95 279.668 199.761 279.041 199.384 278.654C199.006 278.257 198.378 278.059 197.5 278.059C196.349 278.059 195.485 278.55 194.909 279.532V290.336H190.817V275.015H194.668ZM216.036 290.336C215.847 289.968 215.71 289.51 215.625 288.962C214.634 290.067 213.346 290.619 211.76 290.619C210.259 290.619 209.013 290.185 208.021 289.316C207.04 288.448 206.549 287.353 206.549 286.031C206.549 284.407 207.148 283.161 208.347 282.293C209.556 281.424 211.297 280.985 213.572 280.976H215.456V280.098C215.456 279.39 215.271 278.824 214.903 278.399C214.545 277.974 213.973 277.762 213.19 277.762C212.501 277.762 211.958 277.927 211.562 278.257C211.174 278.588 210.981 279.041 210.981 279.617H206.889C206.889 278.729 207.162 277.908 207.71 277.153C208.257 276.398 209.032 275.807 210.032 275.383C211.033 274.948 212.156 274.731 213.402 274.731C215.29 274.731 216.787 275.208 217.891 276.161C219.005 277.106 219.562 278.437 219.562 280.155V286.796C219.571 288.25 219.774 289.349 220.171 290.095V290.336H216.036ZM212.652 287.49C213.256 287.49 213.813 287.357 214.323 287.093C214.833 286.819 215.21 286.456 215.456 286.003V283.369H213.926C211.878 283.369 210.787 284.077 210.655 285.493L210.641 285.734C210.641 286.244 210.82 286.664 211.179 286.994C211.538 287.324 212.029 287.49 212.652 287.49ZM227.605 271.248V275.015H230.225V278.016H227.605V285.663C227.605 286.229 227.714 286.635 227.931 286.881C228.148 287.126 228.563 287.249 229.177 287.249C229.63 287.249 230.031 287.216 230.38 287.15V290.251C229.578 290.496 228.752 290.619 227.902 290.619C225.033 290.619 223.569 289.17 223.513 286.272V278.016H221.275V275.015H223.513V271.248H227.605ZM239.556 290.619C237.309 290.619 235.478 289.93 234.062 288.552C232.655 287.173 231.952 285.337 231.952 283.043V282.647C231.952 281.108 232.25 279.735 232.844 278.526C233.439 277.308 234.279 276.374 235.365 275.723C236.46 275.062 237.706 274.731 239.103 274.731C241.199 274.731 242.846 275.392 244.045 276.714C245.253 278.035 245.857 279.909 245.857 282.335V284.006H236.101C236.233 285.007 236.63 285.809 237.291 286.413C237.961 287.018 238.806 287.32 239.825 287.32C241.402 287.32 242.634 286.749 243.521 285.606L245.532 287.858C244.918 288.726 244.087 289.406 243.04 289.897C241.992 290.378 240.831 290.619 239.556 290.619ZM239.089 278.045C238.277 278.045 237.616 278.319 237.106 278.866C236.606 279.414 236.285 280.197 236.144 281.217H241.836V280.891C241.817 279.985 241.572 279.286 241.1 278.795C240.628 278.295 239.957 278.045 239.089 278.045ZM247.557 282.562C247.557 280.174 248.09 278.271 249.157 276.855C250.233 275.439 251.701 274.731 253.561 274.731C255.052 274.731 256.284 275.288 257.256 276.402V268.586H261.363V290.336H257.667L257.469 288.707C256.449 289.982 255.137 290.619 253.532 290.619C251.729 290.619 250.28 289.911 249.185 288.495C248.099 287.07 247.557 285.092 247.557 282.562ZM251.649 282.859C251.649 284.294 251.899 285.394 252.399 286.159C252.9 286.923 253.627 287.306 254.58 287.306C255.845 287.306 256.737 286.772 257.256 285.705V279.659C256.747 278.592 255.864 278.059 254.608 278.059C252.635 278.059 251.649 279.659 251.649 282.859Z" fill="#333333"/>
<path d="M858.866 497.355H850.134L848.474 502.336H843.178L852.176 478.164H856.791L865.839 502.336H860.543L858.866 497.355ZM851.479 493.321H857.521L854.483 484.273L851.479 493.321Z" fill="#333333"/>
<path d="M778.866 497.355H770.134L768.474 502.336H763.178L772.176 478.164H776.791L785.839 502.336H780.543L778.866 497.355ZM771.479 493.321H777.521L774.483 484.273L771.479 493.321Z" fill="#333333"/>
<path d="M874.22 1H834.813V457.355H874.22V1Z" fill="#D8D9DD"/>
<path d="M874.22 35.9829H834.813V457.39H874.22V35.9829Z" fill="#FFC444"/>
<path d="M943.328 460.614L291 457.355L297.208 1" stroke="#727176" stroke-width="1.9" stroke-miterlimit="10"/>
<path d="M393.754 1H354.312V457.355H393.754V1Z" fill="#D8D9DD"/>
<path d="M393.754 240.461H354.312V457.355H393.754V240.461Z" fill="#1F78FF"/>
<path d="M473.769 1H434.327V457.355H473.769V1Z" fill="#D8D9DD"/>
<path d="M473.769 346.096H434.327V457.39H473.769V346.096Z" fill="#81FF1F"/>
<path d="M553.784 1H514.342V457.355H553.784V1Z" fill="#D8D9DD"/>
<path d="M553.784 321.917H514.342V457.355H553.784V321.917Z" fill="#F36F56"/>
<path d="M633.798 1H594.357V457.355H633.798V1Z" fill="#D8D9DD"/>
<path d="M633.798 191.314H594.357V457.355H633.798V191.314Z" fill="url(#paint0_linear)"/>
<path d="M713.779 1H674.337V457.355H713.779V1Z" fill="#D8D9DD"/>
<path d="M713.779 250.956H674.337V457.355H713.779V250.956Z" fill="#FF8A1F"/>
<path d="M794.206 1H754.798V457.355H794.206V1Z" fill="#D8D9DD"/>
<path d="M794.206 149.506H754.798V457.39H794.206V149.506Z" fill="#444B8C"/>
<path d="M380.866 497.355H372.134L370.474 502.336H365.178L374.176 478.164H378.791L387.839 502.336H382.543L380.866 497.355ZM373.479 493.321H379.521L376.483 484.273L373.479 493.321Z" fill="#333333"/>
<path d="M460.866 497.355H452.134L450.474 502.336H445.178L454.176 478.164H458.791L467.839 502.336H462.543L460.866 497.355ZM453.479 493.321H459.521L456.483 484.273L453.479 493.321Z" fill="#333333"/>
<path d="M540.866 497.355H532.134L530.474 502.336H525.178L534.176 478.164H538.791L547.839 502.336H542.543L540.866 497.355ZM533.479 493.321H539.521L536.483 484.273L533.479 493.321Z" fill="#333333"/>
<path d="M620.866 497.355H612.134L610.474 502.336H605.178L614.176 478.164H618.791L627.839 502.336H622.543L620.866 497.355ZM613.479 493.321H619.521L616.483 484.273L613.479 493.321Z" fill="#333333"/>
<path d="M700.866 497.355H692.134L690.474 502.336H685.178L694.176 478.164H698.791L707.839 502.336H702.543L700.866 497.355ZM693.479 493.321H699.521L696.483 484.273L693.479 493.321Z" fill="#333333"/>
<path d="M555.451 564.487H551.483V573.336H546.503V549.164H555.484C558.34 549.164 560.542 549.8 562.092 551.073C563.641 552.346 564.416 554.144 564.416 556.469C564.416 558.118 564.056 559.496 563.337 560.602C562.629 561.698 561.549 562.572 560.1 563.225L565.329 573.103V573.336H559.983L555.451 564.487ZM551.483 560.453H555.501C556.752 560.453 557.72 560.138 558.406 559.507C559.092 558.865 559.436 557.985 559.436 556.867C559.436 555.727 559.109 554.831 558.456 554.178C557.814 553.525 556.824 553.198 555.484 553.198H551.483V560.453ZM576.17 573.668C573.536 573.668 571.389 572.86 569.729 571.244C568.079 569.628 567.255 567.475 567.255 564.786V564.321C567.255 562.517 567.604 560.907 568.301 559.49C568.998 558.062 569.983 556.967 571.256 556.203C572.54 555.428 574.001 555.041 575.639 555.041C578.096 555.041 580.027 555.816 581.433 557.365C582.849 558.915 583.558 561.112 583.558 563.956V565.915H572.119C572.274 567.088 572.739 568.029 573.514 568.737C574.299 569.446 575.29 569.8 576.485 569.8C578.334 569.8 579.778 569.13 580.818 567.791L583.176 570.431C582.456 571.449 581.482 572.246 580.254 572.821C579.025 573.386 577.664 573.668 576.17 573.668ZM575.622 558.926C574.67 558.926 573.896 559.247 573.298 559.889C572.711 560.53 572.335 561.449 572.169 562.644H578.843V562.263C578.821 561.2 578.533 560.381 577.979 559.806C577.426 559.219 576.64 558.926 575.622 558.926ZM593.768 569.8C594.653 569.8 595.372 569.556 595.926 569.069C596.479 568.582 596.767 567.935 596.789 567.127H601.288C601.277 568.344 600.945 569.462 600.292 570.48C599.639 571.488 598.743 572.273 597.603 572.838C596.474 573.391 595.223 573.668 593.851 573.668C591.283 573.668 589.257 572.854 587.774 571.227C586.291 569.589 585.55 567.332 585.55 564.454V564.139C585.55 561.372 586.286 559.164 587.758 557.515C589.23 555.865 591.25 555.041 593.817 555.041C596.064 555.041 597.863 555.683 599.213 556.967C600.574 558.239 601.266 559.938 601.288 562.063H596.789C596.767 561.134 596.479 560.381 595.926 559.806C595.372 559.219 594.642 558.926 593.734 558.926C592.617 558.926 591.77 559.335 591.194 560.154C590.63 560.962 590.348 562.279 590.348 564.105V564.603C590.348 566.452 590.63 567.78 591.194 568.588C591.759 569.396 592.617 569.8 593.768 569.8ZM609.091 573.336H604.276V555.373H609.091V573.336ZM603.994 550.724C603.994 550.005 604.232 549.413 604.708 548.948C605.195 548.483 605.854 548.251 606.684 548.251C607.503 548.251 608.156 548.483 608.643 548.948C609.13 549.413 609.373 550.005 609.373 550.724C609.373 551.455 609.124 552.053 608.626 552.517C608.139 552.982 607.492 553.215 606.684 553.215C605.876 553.215 605.223 552.982 604.725 552.517C604.238 552.053 603.994 551.455 603.994 550.724ZM621.326 573.668C618.692 573.668 616.545 572.86 614.885 571.244C613.236 569.628 612.411 567.475 612.411 564.786V564.321C612.411 562.517 612.76 560.907 613.457 559.49C614.154 558.062 615.139 556.967 616.412 556.203C617.696 555.428 619.157 555.041 620.795 555.041C623.252 555.041 625.183 555.816 626.589 557.365C628.006 558.915 628.714 561.112 628.714 563.956V565.915H617.275C617.43 567.088 617.895 568.029 618.67 568.737C619.456 569.446 620.446 569.8 621.642 569.8C623.49 569.8 624.934 569.13 625.975 567.791L628.332 570.431C627.613 571.449 626.639 572.246 625.41 572.821C624.182 573.386 622.82 573.668 621.326 573.668ZM620.778 558.926C619.826 558.926 619.052 559.247 618.454 559.889C617.868 560.53 617.491 561.449 617.325 562.644H623.999V562.263C623.977 561.2 623.689 560.381 623.136 559.806C622.582 559.219 621.797 558.926 620.778 558.926ZM637.944 567.475L641.281 555.373H646.295L640.235 573.336H635.653L629.594 555.373H634.607L637.944 567.475ZM656.455 573.668C653.821 573.668 651.674 572.86 650.014 571.244C648.365 569.628 647.54 567.475 647.54 564.786V564.321C647.54 562.517 647.889 560.907 648.586 559.49C649.283 558.062 650.268 556.967 651.541 556.203C652.825 555.428 654.286 555.041 655.924 555.041C658.381 555.041 660.312 555.816 661.718 557.365C663.134 558.915 663.843 561.112 663.843 563.956V565.915H652.404C652.559 567.088 653.024 568.029 653.799 568.737C654.585 569.446 655.575 569.8 656.771 569.8C658.619 569.8 660.063 569.13 661.104 567.791L663.461 570.431C662.742 571.449 661.768 572.246 660.539 572.821C659.311 573.386 657.949 573.668 656.455 573.668ZM655.907 558.926C654.955 558.926 654.181 559.247 653.583 559.889C652.996 560.53 652.62 561.449 652.454 562.644H659.128V562.263C659.106 561.2 658.818 560.381 658.265 559.806C657.711 559.219 656.925 558.926 655.907 558.926ZM676.676 559.872C676.023 559.783 675.447 559.739 674.949 559.739C673.134 559.739 671.944 560.353 671.38 561.582V573.336H666.582V555.373H671.114L671.247 557.515C672.21 555.865 673.544 555.041 675.248 555.041C675.779 555.041 676.277 555.113 676.742 555.257L676.676 559.872ZM688.729 568.372C688.729 567.785 688.435 567.326 687.849 566.994C687.273 566.651 686.343 566.347 685.06 566.081C680.787 565.184 678.651 563.369 678.651 560.636C678.651 559.042 679.31 557.714 680.627 556.651C681.955 555.578 683.687 555.041 685.823 555.041C688.103 555.041 689.924 555.578 691.285 556.651C692.658 557.725 693.344 559.119 693.344 560.835H688.546C688.546 560.149 688.325 559.584 687.882 559.141C687.439 558.688 686.747 558.461 685.807 558.461C684.999 558.461 684.373 558.643 683.931 559.009C683.488 559.374 683.267 559.839 683.267 560.403C683.267 560.934 683.516 561.366 684.014 561.698C684.523 562.019 685.375 562.301 686.57 562.545C687.766 562.777 688.773 563.043 689.592 563.342C692.126 564.271 693.394 565.882 693.394 568.173C693.394 569.811 692.691 571.139 691.285 572.157C689.88 573.164 688.064 573.668 685.84 573.668C684.335 573.668 682.995 573.402 681.822 572.871C680.66 572.329 679.747 571.593 679.083 570.663C678.419 569.722 678.087 568.71 678.087 567.625H682.636C682.68 568.477 682.995 569.13 683.582 569.584C684.169 570.038 684.954 570.265 685.939 570.265C686.858 570.265 687.55 570.093 688.015 569.75C688.491 569.396 688.729 568.936 688.729 568.372Z" fill="#333333"/>
<defs>
<linearGradient id="paint0_linear" x1="5569.11" y1="24701.7" x2="5569.11" y2="45338.6" gradientUnits="userSpaceOnUse">
<stop stop-color="#B24071"/>
<stop offset="0.17" stop-color="#942F77"/>
<stop offset="0.39" stop-color="#771E7E"/>
<stop offset="0.6" stop-color="#611282"/>
<stop offset="0.81" stop-color="#540A85"/>
<stop offset="1" stop-color="#500886"/>
</linearGradient>
</defs>
</svg>
